<?xml version="1.0" encoding="UTF-8" standalone="no"?> <svg id="Layer_1" data-name="Layer 1" xmlns="http://www.w3.org/2000/svg" viewBox="0 0 64 64"><title>ghost_1</title><path d="M24,31a5,5,0,0,1-5-5V22a5,5,0,0,1,10,0v4A5,5,0,0,1,24,31Z"/><path d="M24,19a3,3,0,0,0-3,3v4a3,3,0,0,0,6,0V22A3,3,0,0,0,24,19Z"/><path d="M40,31a5,5,0,0,1-5-5V22a5,5,0,0,1,10,0v4A5,5,0,0,1,40,31Z"/><path d="M40,19a3,3,0,0,0-3,3v4a3,3,0,0,0,6,0V22A3,3,0,0,0,40,19Z"/><path d="M54,57H48.79a5.89,5.89,0,0,1-1.86-.3l-3.7-1.24a4,4,0,0,0-2.46,0l-2.53.85a5.87,5.87,0,0,1-4.5-.32,3.88,3.88,0,0,0-3.48,0,5.87,5.87,0,0,1-4.5.32l-2.53-.85a4,4,0,0,0-2.46,0L16.32,57A1.19,1.19,0,0,1,16,57H10a1,1,0,0,1-.81-.42,1,1,0,0,1-.14-.9l1-2.92a19.15,19.15,0,0,0,1-6V28a21,21,0,0,1,42,0V46.75a19.15,19.15,0,0,0,1,6l1,2.92a1,1,0,0,1-.14.9A1,1,0,0,1,54,57ZM42,53.27a5.89,5.89,0,0,1,1.86.3l3.7,1.23a4,4,0,0,0,1.23.2h3.82l-.53-1.6A20.86,20.86,0,0,1,51,46.75V28a19,19,0,0,0-38,0V46.75a20.86,20.86,0,0,1-1.08,6.65L11.39,55h4.45l4.3-1.43a5.92,5.92,0,0,1,3.72,0l2.53.84a3.88,3.88,0,0,0,3-.21,6,6,0,0,1,5.27,0,3.91,3.91,0,0,0,3,.21l2.53-.84A5.89,5.89,0,0,1,42,53.27Z"/></svg>