<?xml version="1.0" encoding="UTF-8" standalone="no"?> <svg id="Layer_1" data-name="Layer 1" xmlns="http://www.w3.org/2000/svg" viewBox="0 0 64 64"><title>ghost_1</title><path d="M27,22c0,1.25,0,2.5,0,3.75a3.06,3.06,0,0,1-3.92,3.1c-1.9-.62-2.08-2.37-2.08-4.07,0-1.36-.3-3.19.48-4.4A3,3,0,0,1,27,22Z"/><path d="M27,22c0,1.25,0,2.5,0,3.75a3.06,3.06,0,0,1-3.92,3.1c-1.9-.62-2.08-2.37-2.08-4.07,0-1.36-.3-3.19.48-4.4A3,3,0,0,1,27,22Z"/><path d="M43,22c0,1.25,0,2.5,0,3.75a3.06,3.06,0,0,1-3.92,3.1c-1.9-.62-2.08-2.37-2.08-4.07,0-1.36-.3-3.19.48-4.4A3,3,0,0,1,43,22Z"/><path d="M43,22c0,1.25,0,2.5,0,3.75a3.06,3.06,0,0,1-3.92,3.1c-1.9-.62-2.08-2.37-2.08-4.07,0-1.36-.3-3.19.48-4.4A3,3,0,0,1,43,22Z"/><path d="M55,55.68a28.31,28.31,0,0,1-2-8.94c0-1.5,0-3,0-4.5,0-4.64,0-9.28,0-13.92a21,21,0,0,0-30.67-19A21.23,21.23,0,0,0,11,28c0,4.08,0,8.15,0,12.23V46.3a25.11,25.11,0,0,1-1.52,8.1c-.32,1-1,2.44.6,2.6a31.44,31.44,0,0,0,3.22,0,15.23,15.23,0,0,0,3,0A25.9,25.9,0,0,0,19.1,56c1.31-.44,2.55-1,4-.61.91.25,1.8.62,2.7.9a6.09,6.09,0,0,0,3.25.14c1.21-.3,2.18-1,3.48-.84,1.1.13,2,.81,3.14,1a6.47,6.47,0,0,0,2.8-.32,11,11,0,0,1,3.75-1,13.59,13.59,0,0,1,3.45,1A10.55,10.55,0,0,0,49,57h3.52C53.37,57,55.45,57.24,55,55.68ZM48.79,55c-2.34,0-4.42-1.73-6.79-1.73a12.53,12.53,0,0,0-3.84,1,5.94,5.94,0,0,1-1.55.37c-1.18.07-2.09-.57-3.19-.84a5.87,5.87,0,0,0-3,0c-1.12.31-2,.91-3.19.79a17.53,17.53,0,0,1-3.22-1c-2.55-.82-4.87.28-7.27,1.08-1.7.56-3.58.3-5.35.3A27.1,27.1,0,0,0,13,47.88c0-.87,0-1.76,0-2.63V35.49c0-2.47,0-4.94,0-7.41a19,19,0,0,1,37.87-2.29A61,61,0,0,1,51,33V43.4c0,3.27,0,6.46,1,9.64.21.66.43,1.31.65,2Z"/><path d="M52.08,53.4C51,50.21,51,47,51,43.71V33.49c0-2.15.08-4.32,0-6.47A19,19,0,0,0,13,26.88c-.12,2.17,0,4.36,0,6.52V43.63a30.74,30.74,0,0,1-1,9.59c-.19.6-.39,1.19-.59,1.78,1.82,0,3.7.25,5.43-.33,1.1-.36,2.2-.76,3.31-1.1a7.81,7.81,0,0,1,5,.42c.42.14.83.3,1.26.42,1.53.44,2.46-.14,3.87-.57a6,6,0,0,1,3.16-.08c1.38.34,2.38,1.09,3.86.74,1.1-.25,2.13-.75,3.22-1a8.3,8.3,0,0,1,4.84.6A12.28,12.28,0,0,0,49,55c1.2,0,2.41,0,3.62,0ZM29,26a5,5,0,0,1-6.33,4.82C19.88,30.05,19,27.56,19,25c0-2.28-.31-4.72,1.46-6.5a5.06,5.06,0,0,1,7.86,1C29.41,21.34,29,23.93,29,26Zm16,0a5,5,0,0,1-6.33,4.82C35.88,30.05,35,27.56,35,25c0-2.28-.31-4.72,1.46-6.5a5.06,5.06,0,0,1,7.86,1C45.41,21.34,45,23.93,45,26Z"/></svg>